<?xml version="1.0" encoding="utf-8"?>
<!-- Generator: Adobe Illustrator 16.0.0, SVG Export Plug-In . SVG Version: 6.00 Build 0)  -->
<!DOCTYPE svg PUBLIC "-//W3C//DTD SVG 1.1//EN" "http://www.w3.org/Graphics/SVG/1.1/DTD/svg11.dtd">
<svg version="1.1" id="Layer_1" xmlns="http://www.w3.org/2000/svg" xmlns:xlink="http://www.w3.org/1999/xlink" x="0px" y="0px"
	 width="467.98px" height="286.979px" viewBox="0 0 467.98 286.979" enable-background="new 0 0 467.98 286.979"
	 xml:space="preserve">
<path opacity="0.8" fill-rule="evenodd" clip-rule="evenodd" fill="#E27B5D" d="M466.334,143.691
	c-2.17-6.177-5.002-12.193-8.078-17.976c-3.915-7.359-8.402-14.412-12.002-21.934c-3.988-10.276-7.525-20.737-13.99-29.816
	c-8.3-11.656-18.717-22.004-32.066-27.702c-9.188-3.922-18.623-6.612-28.282-8.255c-7.058-4.019-15.621-5.395-23.904-3.105
	c-1.533,0.424-3.072,0.8-4.616,1.149c-5.73,0.086-11.467,0.321-17.205,0.611c-8.79-1.66-17.27-4.459-25.576-7.787
	c-21.141-9.299-41.928-20.588-64.832-24.668c-14.389-2.563-28.764-2.379-43.287-3.196c-13.588-0.764-27.253-1.665-40.833-0.324
	c-16.83,1.661-31.122,6.068-46.287,13.635C91.951,21.02,79.994,30.05,68.183,39.2c-4.416,3.422-8.679,7.039-12.815,10.792
	c-6.45,5.852-11.607,12.739-16.638,19.849c-9.333,13.188-15.866,28.552-20.889,43.828c-2.059,6.26-3.647,12.669-5.022,19.11
	c-1.505,7.052-1.992,14.306-4.627,21.034c-2.543,6.493-5.538,12.744-6.87,19.637c-2.13,11.018-1.842,22.114,2.021,32.744
	c9.979,27.457,35.096,45.065,60.207,57.812c13.178,6.689,26.677,12.38,41.057,15.905c15.106,3.703,30.823,5.508,46.329,6.456
	c29.072,1.778,59.008-0.295,87.437-6.565c22.932-5.06,45.222-12.646,68.545-15.91c-2.791,0.375-5.583,0.75-8.374,1.125
	c12.201-1.587,24.313-3.745,36.484-5.535c20.445-2.36,41.324-1.796,61.359-6.674c18.584-4.524,32.895-15.735,43.146-31.646
	c4.386-6.808,6.918-14.473,11.581-21.094c6.285-8.923,11.726-18.097,14.549-28.803C467.844,162.992,469.239,151.964,466.334,143.691
	z"/>
</svg>
