<?xml version="1.0" encoding="utf-8"?>
<!-- Generator: Adobe Illustrator 16.0.0, SVG Export Plug-In . SVG Version: 6.00 Build 0)  -->
<!DOCTYPE svg PUBLIC "-//W3C//DTD SVG 1.1//EN" "http://www.w3.org/Graphics/SVG/1.1/DTD/svg11.dtd">
<svg version="1.1" id="Layer_1" xmlns="http://www.w3.org/2000/svg" xmlns:xlink="http://www.w3.org/1999/xlink" x="0px" y="0px"
	 width="1176.838px" height="1067.709px" viewBox="0 0 1176.838 1067.709" enable-background="new 0 0 1176.838 1067.709"
	 xml:space="preserve">
<path opacity="0.8" fill="#B9B836" d="M1175.906,276.092c-1.453-31.869-5.668-64.074-13.798-94.583
	c-16.093-60.401-47.801-114.756-94.999-147.168c-26.706-18.339-55.592-26.604-85.928-31.354c-23.783-3.725-48-3.787-71.869-1.18
	c-53.965,5.896-109.705,24.78-150.86,65.972c-3.498,1.886-6.828,4.16-10.06,6.51c-4.01,2.912-8.033,5.829-12.09,8.646
	c-12.308,8.554-24.313,17.5-34.898,28.957c-7.018,7.596-13.673,15.564-19.361,24.476c-6.189,9.692-12.037,19.737-17.414,30.07
	c-5.504,10.575-11.075,21.033-17.534,30.863c-5.975,9.093-13.513,15.737-22.5,19.891c-12.032,5.562-21.901,14.244-28.684,27.028
	c-6.206,11.698-11.937,23.784-17.258,36.065c-3.564,8.227-7.759,15.816-12.84,22.759c-6.616,9.036-14.17,17.013-21.647,25.032
	c-8.961,9.609-17.961,19.214-27.421,28.13c-9.001,8.48-17.175,17.868-24.613,28.098c-4.708,6.475-8.631,13.726-12.925,20.613
	c-4.217,6.763-8.043,13.906-13.333,19.657c-4.537,4.933-10.237,7.696-15.62,11.029c-4.646,2.877-9.215,5.968-14.005,8.469
	c-8.709,4.548-15.543,11.52-21.272,20.342c-3.351,5.158-6.715,10.871-12.957,11.555c-5.746,0.629-11.162,2.939-16.805,3.974
	c-10.102,1.852-20.277,2.344-30.473,1.411c-7.109-0.651-13.979-2.485-20.648-5.647c-5.09-2.412-10.299-5.113-15.879-5.107
	c-4.752,0.006-7.973-2.757-11.117-6.159c-6.715-7.27-14.165-13.131-23.213-15.489c-3.937-1.026-7.406-2.841-10.512-5.724
	c-2.906-2.698-5.678-5.604-8.658-8.18c-3.927-3.395-8.21-5.91-12.972-7.556c-5.235-1.806-10.564-1.055-15.828-1.63
	c-6.21-0.682-12.455-1-18.753-0.837c-0.866,0.021-1.726,0.095-2.58,0.196c-4.385-0.549-8.769-0.156-13.153,1.222
	c-1.269,0.407-2.51,0.909-3.723,1.48c-0.024-0.002-0.046,0.002-0.069,0.001c-2.777-0.07-5.65,1.154-7.815,3.664
	c0.073,0.43,0.165,0.853,0.261,1.273c-3.945,3.353-7.311,7.636-9.797,12.6c-7.248,14.476-6.757,38.317,5.168,49.792
	c1.083,9.651,3.262,19.12,5.678,28.584c-2.611,2.678-5.121,5.498-7.49,8.657c-5.392,7.193-10.271,15.024-14.825,22.973
	c-5.503,9.604-10.385,19.66-15.89,29.25c-0.059,0.063-0.117,0.127-0.176,0.189c-13.717,10.684-29.795,17.019-43.305,27.886
	c-32.053,18.406-56.316,51.123-72.4,87.943c-8.463,12.38-16.365,25.318-22.05,39.762c-7.934,20.154-11.819,39.338-13.883,61.349
	c-3.707,39.554,1.886,81.198,16.272,117.159c4.053,10.128,9.834,18.705,15.699,27.482c3.172,4.748,9.5,8.841,13.231,12.191
	c2.995,2.69,6.116,5.186,9.267,7.62c12.095,9.34,25.173,16.906,38.392,23.792c29.666,15.454,60.363,27.545,91.149,39.5
	c39.39,15.295,78.711,28.562,120.062,34.123c-3.135-0.493-6.27-0.985-9.405-1.479c21.321,3.49,42.517,5.919,64.069,5.404
	c21.475-0.513,43.002-3.803,64.082-8.487c36.594-8.13,71.006-25.823,107.722-33.007c5.923-0.628,11.827-0.733,17.753-0.21
	c14.772,3.39,29.263,10.294,43.74,14.842c17.559,5.516,36.1,8.979,54.309,8.022c35.56-1.869,69.208-20.974,98.749-42.967
	c26.155-19.474,50.155-42.559,75.501-63.385c29.352-24.116,55.396-53.013,82.4-80.476c1.886-1.92,3.803-3.795,5.709-5.688
	c13.043-9.845,26.684-18.518,40.223-27.388c15.86-10.388,30.771-21.622,45.049-34.812c-2.387,2.158-4.773,4.314-7.159,6.472
	c11.968-8.046,24.815-17.099,33.647-29.706c5.361-7.653,8.759-13.878,11.834-21.75c0.965-0.979,1.924-1.965,2.868-2.969
	c19.028-20.224,31.84-47.246,45.123-72.604c7.442-14.205,15.98-27.465,23.813-41.368c8.018-14.23,15.334-28.996,21.991-44.153
	c28.311-64.457,42.373-134.024,47.375-205.952C1177.021,346.932,1177.513,311.285,1175.906,276.092z"/>
</svg>
