<?xml version="1.0" encoding="utf-8"?>
<!-- Generator: Adobe Illustrator 16.0.0, SVG Export Plug-In . SVG Version: 6.00 Build 0)  -->
<!DOCTYPE svg PUBLIC "-//W3C//DTD SVG 1.1//EN" "http://www.w3.org/Graphics/SVG/1.1/DTD/svg11.dtd">
<svg version="1.1" id="Layer_1" xmlns="http://www.w3.org/2000/svg" xmlns:xlink="http://www.w3.org/1999/xlink" x="0px" y="0px"
	 width="657.154px" height="370.594px" viewBox="0 0 657.154 370.594" enable-background="new 0 0 657.154 370.594"
	 xml:space="preserve">
<path opacity="0.9" fill="#D2D7B9" d="M652.37,92.872c-2.623-8.81-4.991-17.668-7.646-26.454c-1.482-4.901-2.959-9.796-4.814-14.572
	c-4.401-11.327-8.601-18.88-16.023-28.381c-20.911-26.764-69.702-33.454-92.306-5.167c-2.396,2.998-4.607,5.796-6.569,8.75
	c-4.768,2.077-9.317,4.648-13.506,7.712c-0.784,0.573-1.561,1.15-2.336,1.727c-1.781,0.897-3.572,1.778-5.375,2.632
	c-4.391,1.643-8.811,3.134-13.204,4.789c-0.11,0.002-0.221,0.006-0.331,0.007c1.332-0.562,2.663-1.123,3.994-1.685
	c-1.4,0.579-2.808,1.141-4.219,1.69c-4.604,0.07-9.214-0.044-13.819-0.197c-7.722-0.256-15.44-0.322-23.122-1.045
	c-30.598-4.986-60.014-14.92-91.173-17.169c-15.07-1.087-30.556-0.172-45.59,1.078c-0.621,0.052-1.243,0.116-1.865,0.17
	c-24.798-1.729-49.661-1.152-74.485-2.341c-12.379-0.593-24.779-1.09-37.159-0.261c-16.499,1.104-31.254,4.135-46.107,10.847
	c-6.099,2.544-11.997,5.367-17.584,8.998c-7.846,5.099-15.19,11.122-22.199,17.316c-9.475,8.373-18.041,17.712-27.466,26.14
	c-22.921,20.497-44.241,44.687-61.141,70.347C8.354,188.125-6.064,223.943,2.54,260.68c6.965,29.74,34.146,53.734,60.921,65.988
	c8.743,4.002,18.145,8.3,27.769,9.797c15.768,2.453,29.657,1.947,45.412-1.223c4.755-0.956,9.435-2.23,14.062-3.709
	c28.329,1.439,56.7-3.264,84.976-0.426c3.899,0.635,7.819,1.408,11.597,2.523c0.768,0.439,1.523,0.899,2.269,1.379
	c9.896,8.773,18.458,19.505,30.255,25.695c16.9,8.869,35.16,10.416,53.89,9.753c13.135-0.465,25.988-1.573,38.461-5.913
	c12.157-4.229,24.182-9.742,34.812-17.059c21.25-14.624,38-33.997,44.541-58.229c7.471-5.105,14.575-10.801,21.483-16.471
	c9.8-8.044,18.396-17.396,28.154-25.446c9.197-7.587,18.077-15.962,26.05-25.101c9.045-4.714,17.988-9.623,26.219-15.684
	c6.673-4.914,13.277-9.963,18.947-16.029c4.703-5.033,8.429-10.812,12.345-16.448c10.073-0.795,20.109-0.922,30.12-3.208
	c-1.016,0.136-2.031,0.273-3.047,0.409c7.746-1.138,15.26-2.843,21.921-7.67c10.531-7.631,17.155-15.997,21.265-28.415
	C659.433,121.678,656.306,106.09,652.37,92.872z"/>
</svg>
