<?xml version="1.0" encoding="utf-8"?>
<!-- Generator: Adobe Illustrator 16.0.0, SVG Export Plug-In . SVG Version: 6.00 Build 0)  -->
<!DOCTYPE svg PUBLIC "-//W3C//DTD SVG 1.1//EN" "http://www.w3.org/Graphics/SVG/1.1/DTD/svg11.dtd">
<svg version="1.1" id="Layer_1" xmlns="http://www.w3.org/2000/svg" xmlns:xlink="http://www.w3.org/1999/xlink" x="0px" y="0px"
	 width="595.01px" height="620.71px" viewBox="0 0 595.01 620.71" enable-background="new 0 0 595.01 620.71" xml:space="preserve">
<path opacity="0.9" fill-rule="evenodd" clip-rule="evenodd" fill="#B9B836" d="M593.849,149.645
	c-1.807-17.841-3.314-35.761-6.828-53.364c-2.188-10.965-5.973-21.452-10.968-31.463c-6.173-12.371-16.127-21.937-27.275-29.784
	c-11.041-7.771-25.095-11.071-38.175-13.567c-12.73-2.429-25.664-3.718-38.529-5.295c-14.349-2.138-28.514-5.462-42.828-7.852
	c-18.454-3.081-37.064-5.509-55.715-7.014c-34.021-2.743-68.43-1.312-101.884,5.725c0.645-0.086,1.288-0.173,1.933-0.26
	c-5.74,0.804-11.412,1.747-17.046,3.309c-7.229,2.004-14.187,5.073-20.985,8.183C224.15,23.474,213.83,31.456,204.667,39.9
	c-17.266,15.911-30.051,36.765-41.041,57.314c-5.077,9.494-9.842,19.153-14.715,28.753c-5.847,11.517-12.484,22.567-18.426,34.027
	c-7.931,15.296-14.835,31.522-19.034,48.263c-3.279,13.074-2.5,26.249-3.688,39.47c-0.646,3.467-1.483,6.873-2.598,10.21
	c-0.403,0.77-0.817,1.531-1.255,2.279c-8.25,4.356-16.584,8.574-24.719,13.111c-22.65,12.633-44.163,29.285-56.604,52.56
	c-6.92,12.947-13.828,25.649-17.688,39.969c-3.919,14.537-5.361,30.158-4.772,45.19c0.603,15.407,3.235,31.036,7.628,45.819
	c4.233,14.25,9.918,28.736,18.655,40.826c10.73,14.846,22.923,27.299,38.201,37.527c13.467,9.016,31.812,15.367,48.154,13.339
	c16.811-2.087,32.445-7.968,46.049-18.229c6.898-5.202,13.488-10.451,19.092-17.051c7.576-8.926,12.009-16.808,16.49-27.5
	c0.11-0.264,0.188-0.538,0.286-0.807c7.361-1.992,14.737-3.941,22.246-5.294c5.183-0.405,10.342-0.353,15.513,0.095
	c8.823,1.615,17.381,4.215,25.748,7.453c3.354,1.539,6.649,3.188,9.918,4.891c8.341,14.992,15.268,30.847,24.715,45.187
	c17.123,25.991,41.166,48.205,70.825,58.477c-0.643-0.271-1.285-0.542-1.928-0.813c9.477,3.545,19.042,4.888,29.07,6.15
	c1.582,3.951,3.894,7.477,6.958,10.562c8.256,8.256,19.505,10.556,30.647,8.101c14.882-3.279,27.945-13.108,39.092-22.983
	c10.569-9.362,19.997-20.967,27.163-33.096c3.279-5.551,6.074-11.712,7.746-17.922c1.971-7.324,6.086-14.545,8.957-21.568
	c6.634-16.227,11.913-33.096,12.168-50.806c-0.095,0.704-0.189,1.407-0.283,2.111c1.248-12.89-0.673-25.181-5.383-37.573
	c-3.489-9.183-7.946-18.105-10.23-27.682c-0.129-5.904,0.882-11.739,1.471-17.646c1.213-12.156-2.308-23.483-7.197-34.373
	c-5.607-12.488-16.232-22.064-21.852-34.578c0.364,0.865,0.729,1.729,1.095,2.594c-1.947-4.479-4.003-8.9-5.986-13.365
	c-3.313-8.438-5.981-17.09-7.603-26.011c-0.422-4.859-0.479-9.715-0.116-14.579c0.76-3.871,1.801-7.661,3.118-11.385
	c2.107-4.307,4.556-8.409,7.306-12.344c6.636-7.819,14.257-14.461,22.271-20.857c3.9-2.875,7.928-5.54,12.224-7.771
	c1.258-0.409,2.529-0.767,3.815-1.076c1.201-0.037,2.402-0.032,3.604,0.017c3.089,0.713,6.09,1.653,9.143,2.682
	c5.748,1.938,11.466,2.731,17.558,3.303c14.802,1.39,27.187-7.086,36.255-17.753c-0.145,0.188-0.289,0.375-0.434,0.562
	c1.444-1.587,2.729-3.233,3.883-4.927c0.354-0.481,0.702-0.964,1.043-1.449c-0.199,0.259-0.399,0.517-0.6,0.776
	C596.637,186.769,595.663,167.538,593.849,149.645z"/>
</svg>
