<?xml version="1.0" encoding="utf-8"?>
<!-- Generator: Adobe Illustrator 16.0.0, SVG Export Plug-In . SVG Version: 6.00 Build 0)  -->
<!DOCTYPE svg PUBLIC "-//W3C//DTD SVG 1.1//EN" "http://www.w3.org/Graphics/SVG/1.1/DTD/svg11.dtd">
<svg version="1.1" id="Layer_1" xmlns="http://www.w3.org/2000/svg" xmlns:xlink="http://www.w3.org/1999/xlink" x="0px" y="0px"
	 width="851.143px" height="1392.243px" viewBox="0 0 851.143 1392.243" enable-background="new 0 0 851.143 1392.243"
	 xml:space="preserve">
<path opacity="0.8" fill-rule="evenodd" clip-rule="evenodd" fill="#E0A327" d="M844.643,373.966
	c-5.557-4.517-12.199-6.489-19.473-6.37c-8.603,0.145-17.21,0.027-25.814,0.047c-2.653,0.006-5.332-0.137-7.953,0.173
	c-9.239,1.089-18.534-0.136-27.782,0.849c-4.011,0.428-8.107-0.008-12.139,0.299c-9.318,0.708-18.602,1.807-27.95,2.222
	c-6.127,0.272-12.312,0.181-18.358,1.382c-11.951,2.374-23.868,4.92-35.809,7.35c-7.212,1.466-14.608,2.328-21.466,5.075
	c-12.789,5.122-25.608,10.165-38.203,15.788c-9.642,4.305-19.086,9.035-28.857,13.072c-7.757,3.205-15.406,6.707-23.038,10.234
	c-8.417,3.891-16.537,8.215-24.374,13.111c-5.588,3.492-10.654,7.707-15.896,11.684c-6.445,4.891-13.295,9.236-20.282,13.316
	c-4.63,2.703-9.423,5.154-14.642,6.604l-0.015,0.027c-0.01,0.334-0.167,0.52-0.516,0.514c-0.355,0.332-0.711,0.664-1.065,0.996
	c-0.156,0.673-0.645,0.799-1.235,0.756c-0.091,0.591-0.443,0.81-1.037,0.686c0,0-0.017-0.052-0.019-0.058c0-0.001,0-0.002,0-0.003
	c-9.475,4.096-19.284,7.258-28.056,13.119c-8.61,5.752-16.696,12.266-25.539,17.625c-9.089,5.51-17.51,12.076-27.099,16.814
	c-2.592,1.283-4.739,3.474-7.28,5.578c-0.043-0.687-0.085-1.374-0.115-2.061c0.615-1.28,1.532-2.266,2.396-3.184
	c5.026-5.34,9.522-11.117,14.284-16.672c5.797-6.762,11.435-13.676,17.731-20.016c5.434-5.471,10.631-11.178,15.874-16.834
	c6.591-7.113,13.276-14.15,19.624-21.477c4.135-4.77,8.568-9.248,12.836-13.883c4.002-4.348,8.562-8.178,12.668-12.436
	c2.924-3.031,5.746-6.125,8.055-9.773c4.576-7.229,8.985-14.561,12.564-22.297c3.039-6.57,6.102-13.153,8.648-19.97
	c3.021-8.081,5.51-16.523,10.388-23.692c4.312-6.338,8.315-12.855,12.134-19.461c3.023-5.229,5.098-11.008,7.62-16.529
	c4.687-10.262,7.94-21.012,11.267-31.766c2.919-9.432,7.028-18.462,10.27-27.808c1.678-4.838,3.043-9.693,4.07-14.673
	c1.333-6.453,3.38-12.751,4.1-19.336c1.201-10.979,4.875-21.412,7.341-32.106c1.373-5.955,2.309-12.052,4.176-17.866
	c2.78-8.656,4.171-17.586,6.141-26.407c0.671-3.005,1.332-6.004,1.823-9.043c-0.643-0.123-1.404-0.065-1.912-0.396
	c0.508,0.33,1.27,0.273,1.912,0.395c0.133-0.146,0.264-0.291,0.396-0.436c-0.227-1.029-0.232-2.039,0.008-3.086
	c1.488-6.508,2.684-13.138,3.354-19.714c1.217-11.971,1.829-24.022-0.711-36.042c-1.225-5.79-1.809-11.727-3.432-17.455h-0.002
	c-0.186-1.145-0.726-2.218-1.609-2.977c-2.072-8.498-4.975-16.631-9.258-24.047c-4.889-9.541-11.73-18.066-21.92-22.09
	c-24.495-9.677-37.411,23.861-50.741,41.755c-2.048,2.305-4.103,4.603-6.167,6.89c-0.363,0.316-0.654,0.648-0.89,0.989
	c-3.37,3.723-6.767,7.416-10.202,11.061c-5.112,5.424-10.229,10.857-14.773,16.773c-0.556,0.722-1.117,1.472-1.675,2.233
	c-2.872,2.406-5.438,5.103-7.925,7.901c-2.557,1.958-4.867,4.229-7.209,6.473c-4.027,3.863-6.941,8.586-10.403,12.88
	c-5.337,6.621-11.075,12.899-17.312,18.779c-4.604,4.342-9.177,8.839-13.249,13.798c-5.15,6.269-10.667,12.147-16.859,17.295
	c-4.649,0.974-9.112,3.072-13.367,5.011c-8.158,3.718-15.319,9.707-21.962,15.62c-12.095,10.766-21.825,24.239-31.486,37.137
	c-17.256,22.675-31.66,47.106-44.452,72.604c-14.44,28.782-31.167,56.641-47.191,84.562c-7.815,13.619-15.696,27.2-23.596,40.77
	c-3.771,6.479-7.548,12.956-11.325,19.432c-4.973,8.524-8.607,17.84-12.363,26.939c-5.886,14.257-10.515,29.017-14.906,43.789
	c-3.984,13.402-8.473,26.631-12.325,40.065c-3.111,10.849-6,21.771-10.033,32.313c-0.971,2.067-2.008,4.098-3.113,6.097
	c-11.256,12.294-25.129,21.81-37.602,32.812c-6.439,2.021-12.984,3.667-19.713,4.759c-12.03,1.45-24.244,2.604-35.875,5.978
	c-13.725,3.981-27.681,12.31-36.819,23.369c-17.574,21.27-24.909,49.493-27.593,76.566c-2.939,29.674,13.773,56.265,35.371,74.896
	c1.848,1.595,3.727,3.151,5.616,4.694c-1.089,4.949-1.023,10.171,0.292,15.231c1.854,7.134,4.429,14.068,7.547,20.797
	c5.422-1.054,10.844-0.86,16.266,0.597c23.248,3.849,46.741,6.574,69.726,11.874c2.016,1.358,4.004,2.764,5.966,4.211
	c3.595,2.851,7.158,5.74,10.717,8.636c2.049,1.667,4.111,3.317,6.187,4.951c2.925,2.303,5.885,4.562,8.838,6.829
	c2.28,1.75,4.97,2.745,7.66,3.735c13.298,6.19,25.6,14.181,37.987,22.027c10.281,6.513,20.925,12.422,31.516,18.423
	c5.141,7.743,9.534,15.96,13.4,24.414c9.691,21.194,17.189,43.223,25.952,64.782c6.886,15.377,15.672,29.645,23.649,44.481
	c1.728,3.214,3.438,6.437,5.149,9.659c7.267,7.614,14.342,15.413,21.177,23.435c18.363,21.551,37.309,44.617,49.729,70.25
	c10.624,21.926,17.803,46.204,32.147,66.136c11.607,14.309,26.228,25.247,40.585,36.643c15.36,12.192,29.768,26.158,38.83,43.828
	c0.197,0.385,0.38,0.773,0.564,1.161c15.46,11.572,31.224,22.731,47.555,33.053c10.547,6.667,21.706,12.327,31.944,19.448
	c8.479,5.898,16.963,11.792,25.772,17.189c8.906,5.457,19.464,11.886,29.872,13.362c7.02,0.997,12.582,2.126,19.561-0.426
	c7.767-2.841,10.295-4.552,16.692-9.7c4.789-3.854,8.602-9.43,11.205-14.999c5.021-10.741,7.637-21.408,9.495-33.029
	c1.85-11.558,4.184-22.759,4.792-34.502c2.191-42.267-0.131-84.401-6.077-126.278c-2.671-18.805-6.48-37.458-11.654-55.735
	c-2.509-8.861-4.262-17.938-6.729-26.818c-2.914-10.489-6.772-20.738-11.437-30.578c-1.919-4.376-4.139-8.455-6.637-12.464
	c-0.468-1.551-0.918-3.106-1.327-4.674c-1.189-4.558-3.165-8.8-4.975-13.126c-2.722-6.508-5.705-12.852-9.284-18.937
	c-1.606-2.73-3.19-5.542-3.831-8.729c-0.507-0.79-1.455-1.135-1.852-2.088c-3.151-7.558-7.104-14.735-10.564-22.136
	c-2.512-5.375-4.899-10.836-7.607-16.104c-4.029-7.842-8.874-15.268-12.822-23.146c-3.854-7.691-8.83-14.614-13.68-21.621
	c-1.699-2.454-3.344-5.032-5.373-7.252c-4.396-4.808-8.208-10.079-11.576-15.592c-3.43-5.614-6.543-11.406-10.465-16.723
	c-4.527-6.136-8.725-12.521-13.376-18.559c-1.836-2.383-3.39-5.016-5.492-7.168c-6.111-6.256-11.679-12.996-17.175-19.765
	c-2.648-3.263-5.596-6.174-8.672-8.937c-1.445-2.542-3.22-4.987-5.229-7.484c-19.245-23.935-41.702-44.462-66.191-62.915
	c-4.114-3.101-8.348-6.1-12.67-8.996c-0.223-3.119-0.92-6.123-2.012-8.943c4.596,1.722,9.298,3.158,14.061,4.479
	c8.718,2.416,17.803,2.348,26.674,3.758c5.602,0.889,11.041,2.641,16.723,3.076L482.847,745c0.305,0.215,0.61,0.429,0.915,0.644
	c1.041-0.203,2.051-0.002,3.091,0.111c8.354,0.91,16.698,2.141,25.078,2.48c8.39,0.338,16.793,0.146,25.212-0.914
	c12.129-1.527,22.581-6.553,32.231-13.629c6.048-4.434,12.562-7.885,19.568-10.551c3.62-1.379,7.461-1.99,10.98-3.727
	c6.686-3.301,12.202-8.182,18.062-12.637c8.504-6.469,16.213-13.834,24.19-20.898c3.874-3.432,7.718-6.898,11.66-10.25
	c3.511-2.984,7.551-5.25,11.553-7.432c9.483-5.168,19.144-10.016,28.78-14.896c8.873-4.494,16.136-11.043,23.106-17.945
	c4.619-4.574,9.124-9.264,13.477-14.105c4.087-4.549,8.352-9.01,11.595-14.148c4.372-6.93,7.84-14.438,10.938-22.012
	c3.205-7.836,6.469-15.67,9.377-23.615c3.601-9.836,7.317-19.594,12.068-28.934c2.352-4.623,4.43-9.438,7.258-13.756
	c4.641-7.088,9.636-13.961,14.801-20.68c2.078-2.701,3.743-5.682,5.922-8.271c4.438-5.279,8.314-10.98,11.797-16.871
	c3.102-5.248,6.062-10.67,7.991-16.537c0.146-0.443,0.362-0.883,0.629-1.268c3.111-4.479,5.236-9.504,7.007-14.555
	c2.098-5.986,4.304-11.93,7.073-17.594c2.625-5.373,6.037-10.355,8.727-15.73c1.407-2.811,2.345-5.796,3.972-8.581
	c1.473-2.522,0.992-6.237,1.194-9.438C851.487,383.118,849.313,377.762,844.643,373.966z"/>
</svg>
