<?xml version="1.0" encoding="utf-8"?>
<!-- Generator: Adobe Illustrator 16.0.0, SVG Export Plug-In . SVG Version: 6.00 Build 0)  -->
<!DOCTYPE svg PUBLIC "-//W3C//DTD SVG 1.1//EN" "http://www.w3.org/Graphics/SVG/1.1/DTD/svg11.dtd">
<svg version="1.1" id="Layer_1" xmlns="http://www.w3.org/2000/svg" xmlns:xlink="http://www.w3.org/1999/xlink" x="0px" y="0px"
	 width="581.847px" height="822.959px" viewBox="0 0 581.847 822.959" enable-background="new 0 0 581.847 822.959"
	 xml:space="preserve">
<path opacity="0.9" fill="#D2D7B9" d="M581.573,280.982c-1.251-31.353-6.766-61.868-19.579-90.618
	c-9.659-21.674-28.347-38.354-45.55-53.918c-17.438-15.777-36.169-27.499-59.943-30.046c-11.853-1.27-24.063-0.245-35.982-0.864
	c-5.715-0.297-11.857-0.811-17.107-1.595c-6.8-1.016-13.55-3.627-20.337-5.009c-11.474-2.336-22.994-4.391-34.521-6.414
	c-1.139-0.21-2.271-0.455-3.395-0.733c-0.093-0.022-3.222-1.296-3.295-1.156c-0.092-0.061-0.175-0.116-0.239-0.158
	c-0.815-0.694-1.612-1.413-2.41-2.124c-3.421-3.046-6.953-5.794-10.927-7.808c-0.037-0.155-0.068-0.311-0.112-0.465
	c-1.079-0.087-1.913-0.696-2.794-1.252c-5.83-3.685-11.861-7.012-18.023-10.111c-4.227-2.125-8.386-4.39-12.85-6.002
	c-3.991-1.442-8.116-2.467-12.287-3.079c-3.404-0.5-6.336-1.8-9.008-3.79c-4.056-3.019-7.834-6.38-11.691-9.646
	c-3.056-2.587-6.327-5.021-9.923-6.845c-1.847-0.937-3.276-2.53-5.306-3.126c-0.4-0.117-0.666-0.507-0.675-0.952
	c-0.002-0.09,0.022-0.17,0.038-0.253c-1.385-0.294-2.761-0.627-4.124-1.001c-0.314,0.205-0.626,0.415-0.939,0.622
	c-7.329-3.72-16.323-5-24.179-7.281c-16.369-4.752-33.71-7.367-50.421-10.723c-16.192-3.252-31.769-8.932-47.998-12
	c-16.598-3.137-33.135-6.835-49.972-3c-7.151,1.629-11.592,9.078-10.897,16.092c-0.139,0.921-0.187,1.878-0.115,2.872
	c0.614,8.597,3.925,15.06,9.396,21.553c-1.46-1.732,1.943,2.758,1.768,2.494c0.941,1.417,1.814,2.881,2.695,4.336
	c1.556,2.569,3.051,5.168,4.688,7.687c7.637,11.751,21.243,21.146,32.881,28.492c5.216,3.292,10.521,6.445,15.94,9.393
	c6.052,3.291,11.918,7.171,18.056,10.245c6.303,3.157,9.53,5.102,13.933,9.323c3.192,3.061,6.623,5.388,10.323,6.832
	c-0.131,0.17-0.262,0.339-0.393,0.509c0.553,0.511,1.06,1.067,1.518,1.662c0.441-0.018,0.897,0.177,1.382,0.604
	c3.571,3.149,7.508,5.75,11.605,8.191c3.279,1.951,6.764,3.323,10.402,3.385c3.377,0.058,5.71,1.565,7.979,3.505
	c4.346,3.712,9.181,6.713,13.976,9.755c5.168,3.279,10.238,6.652,14.438,11.151c5.81,6.22,12.331,11.633,18.908,16.998
	c4.173,3.406,7.469,7.428,9.757,12.454c1.419,3.118,3.878,5.827,5.315,8.998c1.473,3.242,3.6,6.029,5.709,8.773
	c1.263,1.646,2.94,2.978,4.038,4.863c1.592,2.734,2.491,7.419,1.703,10.518c-0.024,0.099-0.13,0.214-0.104,0.287
	c1.219,3.304-0.656,6.621,0.242,10.075c0.76,2.923,0.212,6.184,0.249,9.295c0.016,1.222,0.072,2.321,0.821,3.505
	c0.659,1.042,0.915,2.372,0.328,4.016c-0.84,2.348-1.189,5.06-0.358,7.622c0.285,0.879,0.238,1.61-0.21,2.359
	c-0.62,1.034-0.777,2.199-0.562,3.313c0.888,4.627-0.206,9.235-0.024,13.85c0.035,0.929,0.1,1.831,0.291,2.759
	c0.345,1.668-0.332,2.208-2.077,1.775c-1.92-0.474-3.97-1.214-5.108-2.685c-1.914-2.472-4.621-3.792-7.015-5.475
	c-1.886-1.325-3.392-2.99-5.183-4.343c-2.789-2.108-4.067-5.356-6.313-7.855c-0.274-0.304-0.406-0.824-0.73-0.98
	c-2.976-1.45-4.734-4.328-7.236-6.207c-3.725-2.799-7.209-5.994-11.344-8.223c-4.412-2.378-8.871-4.671-13.361-6.898
	c-1.085-0.538-2.293-0.987-3.584-0.902c-1.291,0.083-2.492-0.023-3.241-1.324c-0.13-0.227-0.492-0.396-0.773-0.447
	c-5.491-0.986-10.593-3.451-16.093-4.331c-1.458-0.234-2.925-0.42-4.395-0.589c-3.843-1.471-7.682-2.95-11.603-4.212
	c-10.063-3.239-21.176-2.578-31.47-1.083c-9.203,1.336-16.818,3.426-24.91,3.66c-7.127,0.206-16.241-2.805-24.206-4.69
	c-9.907-2.346-20.003-4.14-30.195-4.482c-4.995-0.168-9.981-0.025-14.976-0.319c-4-0.235-6.713-1.222-10.766-2.806
	c-9.204-3.597-18.254-5.369-28.095-3.86c-4.99,0.765-9.215,5.89-10.477,10.477c-1.916,6.964,1.366,12.953,6.894,16.94
	c17.233,12.434,35.884,22.734,53.599,34.419c8.037,5.301,17.536,7.718,25.269,13.471c8.162,6.073,16.952,11.039,25.351,16.741
	c15.479,10.509,29.838,24.123,47.242,34.191c8.021,4.64,15.896,9.595,23.794,14.448c7.114,4.371,13.741,9.676,21.526,12.711
	c0.196,0.644,0.445,1.273,0.797,1.875c0.719,0.038,1.509-0.178,2.13,0.263c4.5,3.191,9.71,5.241,13.857,9.072
	c1.685,1.556,3.666,3.005,5.658,4.252c1.506,0.942,1.834,2.882,3.367,3.563c3.145,1.399,5.253,4.048,7.81,6.155
	c0.873,0.721,1.56,1.66,2.867,1.665c0.363,0.001,0.926,0.237,1.059,0.522c1.287,2.766,4.259,3.746,6.19,5.863
	c1.392,1.524,3.436,2.479,5.093,3.883c3.126,2.647,5.991,5.627,9.509,7.818c1.71,1.065,3.601,2.028,4.169,4.275
	c0.143,0.559,0.812,0.551,1.272,0.76c0.563,0.256,1.273,0.444,1.612,0.896c2.005,2.657,4.827,4.258,7.476,6.124
	c2.607,1.836,5.029,3.937,7.542,5.91c0.483,0.379,0.963,0.809,1.515,1.047c3.068,1.328,5.526,3.591,7.69,5.935
	c1.642,1.779,3.61,3.558,4.393,6.051c0.196,0.622,0.468,1.102,1.062,1.441c1.87,1.068,3.135,2.713,3.856,4.686
	c0.331,0.904,1.118,1.128,1.594,1.709c1.517,1.846,3.099,3.623,5.03,5.012c2.461,1.771,3.218,4.691,4.953,6.94
	c0.123,0.159,0.241,0.375,0.245,0.564c0.09,5.405,0.731,10.867-2.807,15.68c-1.278,1.741-2.565,2.676-4.82,2.692
	c-2.647,0.019-5.083-0.664-7.599-1.257c-6.004-1.419-11.498-3.904-16.773-7.08c-3.69-2.222-7.658-4.04-11.885-5.025
	c-4.826-1.126-9.386-3.017-14.057-4.58c-3.228-1.079-6.63-1.563-9.754-2.967c-0.372-0.166-0.809-0.337-1.192-0.295
	c-1.513,0.164-2.961-0.047-4.39-0.369c-3.428-1.784-7.38-2.822-11.558-3.159c-4.161-0.336-8.448,0.405-12.604,0.604
	c-4.901,0.234-9.455,0.112-14.38,1.071c-0.955,0.186-1.899,0.412-2.838,0.663c-4.627,0.348-9.254,1.02-13.934,2.266
	c-5.598,1.49-10.958,3.885-16.362,5.938c-0.126,0.048-0.255,0.088-0.381,0.135c-2.555,0.325-5.098,0.73-7.623,1.255
	c-3.007,0.134-6.007,0.315-9.008,0.699c-6.744,0.862-12.523,3.958-14.464,11.013c-1.909,6.938,1.351,12.983,6.894,16.939
	c5.809,4.146,12.532,6.695,18.62,10.377c6.437,3.893,11.949,8.866,18.751,12.249c2.179,1.083,4.467,1.943,6.71,2.885
	c0.894,0.336,1.78,0.688,2.664,1.049c0.255,0.111,0.67,0.291,1.266,0.548c4.23,1.844,8.452,3.697,12.714,5.471
	c7.301,3.038,14.929,4.933,22.815,5.369c0.3,0.15,0.589,0.31,0.855,0.486c2.474,1.633,5.438,2.044,7.841,3.526
	c3.729,2.298,8.032,3.734,10.947,7.381c1.155,1.445,3.259,1.973,4.781,3.264c2.48,2.102,5.538,3.537,7.962,5.69
	c3.288,2.922,6.781,5.885,8.071,10.323c0.48,1.653,0.724,3.363,1.495,4.95c0.453,0.934,0.792,1.91,1.551,2.661
	c0.219,0.217,0.566,0.473,0.571,0.716c0.086,3.817,2.86,6.947,2.544,10.976c-0.166,2.112-0.82,3.746-2.053,5.174
	c-1.457,1.686-3.367,2.97-4.372,5.063c-0.534,1.116-1.876,1.116-2.736,1.9c-2.355,2.147-3.986,5.009-6.727,6.754
	c-0.491,0.312-0.533,0.846-0.735,1.313c-0.575,1.325-1.111,2.672-2.469,3.477c-0.415,0.246-0.818,0.725-0.964,1.181
	c-0.956,2.992-3.328,4.93-5.215,7.243c-2.064,2.534-3.931,5.228-5.915,7.828c-0.812,1.063-1.703,2.066-2.56,3.096
	c-0.972,1.168-2.135,2.244-2.051,3.948c0.065,1.325,0.831,2.825-1.047,3.613c-0.158,0.067-0.228,0.586-0.182,0.867
	c0.653,3.923-0.911,7.721-0.51,11.724c0.229,2.278,1.158,4.818,0.014,7.23c-0.588,1.239,1.24,1.942,0.78,3.448
	c-0.486,1.593-0.249,3.407-0.32,5.125c-0.048,1.149-0.001,2.276,0.599,3.319c0.364,0.632,0.585,1.271,0.301,2.062
	c-0.474,1.313-0.313,2.628,0.168,3.947c0.658,1.8-0.712,3.818,0.538,5.58c-2.441,2.2-1.625,4.564-0.422,7.005
	c0.195,0.396,0.14,1.154-0.124,1.498c-1.767,2.322-2.275,5.251-3.796,7.678c-0.21,0.335-0.553,0.612-0.887,0.838
	c-1.854,1.259-2.96,3.097-3.919,5.042c-0.805,1.636-5.386,7.632-6.879,8.768c-0.735,0.559-1.114,1.161-1.145,2.063
	c-0.013,0.396-0.099,1.09-0.283,1.137c-1.99,0.505-1.852,2.489-2.756,3.734c-2.988,4.114-5.677,8.439-8.462,12.677
	c-1.834,2.793-4.341,4.86-6.281,7.472c-0.354,0.477-0.937,0.846-1.49,1.103c-6.414,2.969-10.896,8.049-14.142,14.038
	c-2.18,4.026-3.767,8.471-3.947,13.241c-0.149,3.968-1.282,7.695-3.448,11.049c-0.497,0.768-1.184,1.487-1.937,2.005
	c-3.913,2.695-7.804,5.405-11.949,7.774c-6.537,3.736-13.26,7.254-18.654,12.699c-1.478,1.49-2.552,3.258-3.577,5.039
	c-1.858,3.233-3.214,6.695-3.827,10.385c-0.44,2.658,2.555,6.703,5.273,7.628c6.57,2.235,12.856,1.318,18.936-1.643
	c6.329-3.085,12.555-6.388,18.915-9.408c7.647-3.631,15.378-7.017,23.471-9.662c5.331-1.742,10.754-3.448,15.809-6.055
	c2.177-1.121,4.617-1.743,6.953-2.545c3.012-1.034,5.974-2.311,8.593-4.026c4.229-2.771,9.183-4.032,13.35-6.941
	c1.581-1.104,3.705-1.546,5.553-2.44c2.557-1.237,4.568-3.044,6.796-4.652c2.407-1.736,5.038-3.159,7.534-4.776
	c1.863-1.208,3.752-2.359,5.695-3.418c1.666-3.322,5.061-5.835,8.908-5.585c4.781,0.311,10.147-1.27,15.779-3.84
	c6.806-3.105,13.353-6.722,19.843-10.432c5.942-3.398,11.829-6.96,17.97-9.993c7.372-3.642,15.079-6.469,22.382-10.303
	c5.427-2.849,10.778-5.91,16.104-9.061c2.788-2.791,5.533-5.625,8.303-8.427c0.307-0.844,0.623-1.685,0.968-2.514
	c4.032-9.698,8.43-19.459,12.815-29.267c2.614-4.15,5.353-8.211,8.182-12.147c2.871-3.994,6.663-9.248,8.941-11.7
	c2.308-2.485,4.454-5.161,6.442-7.948c4.58-3.584,8.914-7.449,12.704-11.867c10.557-12.308,14.645-27.068,17.162-42.779
	c2.52-15.721,3.993-31.498,5.759-47.309c0.675-6.04,1.768-13.557,4.165-20.291c1.068-3.002,1.922-6.084,2.874-9.123
	c0.043-0.136,0.081-0.258,0.121-0.386c12.14-9.163,18.562-21.476,27.939-34.241c8.105-11.032,18.248-21.996,27.615-32.807
	c10.032-11.577,19.829-23.597,27.566-36.857c7.554-12.944,13.618-26.825,18.613-40.939
	C580.278,340.002,582.763,310.82,581.573,280.982z"/>
</svg>
