<?xml version="1.0" encoding="utf-8"?>
<!-- Generator: Adobe Illustrator 16.0.0, SVG Export Plug-In . SVG Version: 6.00 Build 0)  -->
<!DOCTYPE svg PUBLIC "-//W3C//DTD SVG 1.1//EN" "http://www.w3.org/Graphics/SVG/1.1/DTD/svg11.dtd">
<svg version="1.1" id="Layer_1" xmlns="http://www.w3.org/2000/svg" xmlns:xlink="http://www.w3.org/1999/xlink" x="0px" y="0px"
	 width="822.288px" height="725.504px" viewBox="0 0 822.288 725.504" enable-background="new 0 0 822.288 725.504"
	 xml:space="preserve">
<g opacity="0.9">
	<path fill="#E27B5D" d="M821.294,306.417c-2.227-12.029-10.254-21.886-11.9-34.021c-0.043-0.319-0.383-0.59-0.53-0.908
		c-3.435-7.326-5.704-15.047-7.201-22.951c-1.29-6.803-1.507-13.766-2.519-20.637c-1.389-9.442-4.498-18.492-5.789-27.947
		c-0.806-5.91-1.854-11.817-3.281-17.604c-1.702-6.893-3.154-13.771-3.554-20.89c-0.27-4.78-1.157-9.609-2.964-14.001
		c-4.707-11.441-8.943-23.084-14.997-33.971c-2.818-5.068-4.299-10.863-6.601-16.238c-3.414-7.98-6.741-16.018-10.612-23.779
		c-4.661-9.344-11.832-16.941-18.808-24.555c-2.529-2.762-5.278-5.438-8.13-7.979c-5.253-4.68-11.614-7.498-17.297-11.416
		c-0.681,0.057-1.272,0.27-1.823,0.562c-1.119-0.728-2.257-1.422-3.409-2.085c-6.087-4.997-13.078-8.076-20.561-11.194
		c-11.918-4.967-24.849-9.449-37.598-11.566c-4.729-0.785-9.355-1.262-13.936-1.482c-8.591-2.332-17.719-3.172-26.271-3.516
		c-28.962-1.162-58.5,2.007-86.904,7.327c-14.316,2.682-28.453,6.305-42.347,10.667c-5.772,1.051-11.552,2.066-17.344,2.99
		c-9.722,1.551-19.525,2.819-29.262,4.395c-3.157,0.122-6.315,0.213-9.48,0.229c-3.167,0.015-6.233,0.531-9.123,1.469
		c-6.454,0.09-12.928-0.475-19.374,0.49c-8.662,1.297-16.393,5.051-24.256,8.522c-18.357,8.104-35.463,18.688-53.658,27.108
		c-14.989,6.938-30.641,12.101-46.373,17.021c-11.867,3.712-23.274,8.677-35.014,12.741c-10.259,3.551-20.454,7.295-30.307,11.89
		c-8.146,3.798-15.49,8.886-22.748,14.13c-5.396,3.9-11.153,7.335-16.326,11.503c-5.216,4.202-9.547,9.222-11.688,15.917
		c-2.008,6.283-4.324,12.471-8.2,17.982c-1.812,2.578-1.458,6.051-2.96,8.986c-2.652,5.178-4.378,10.82-6.896,16.072
		c-4.164,8.689-9.767,16.468-16.062,23.745c-5.296,6.126-11.783,12.321-17.229,18.312c-7.58,8.336-14.537,17.212-22.662,25.096
		c-3.586,3.48-7.195,7.286-9.432,11.992l-0.018,0.031c-0.013,0.423-0.21,0.66-0.652,0.65c-0.449,0.42-0.898,0.84-1.348,1.259
		c-0.196,0.851-0.812,1.01-1.56,0.956c-0.114,0.748-0.562,1.024-1.312,0.866l-0.024-0.077c0.447,1.773-0.717,2.919-1.625,4.161
		c-4.066,5.556-8.231,11.039-12.185,16.674c-7.911,11.273-13.375,23.813-18.484,36.512c-1.019,2.533-1.329,5.363-2.436,7.847
		c-4.28,9.6-5.829,20.022-9.173,29.911c-2.121,6.279-2.608,13.059-4.192,19.483c-2.958,11.993-5.318,24.116-8.409,36.091
		c-3.801,14.721-4.037,30.027-4.378,45.182c-0.372,16.594,0.496,32.994,5.987,49.055c3.395,9.936,7.192,19.703,10.789,29.547
		c1.658,4.547,4.031,8.936,6.719,12.973c6.069,9.109,12.816,17.75,18.548,27.111c2.28,3.727,5.074,7.246,8.143,10.359
		c6.15,6.234,10.589,13.73,15.916,20.562c0.384,0.27,0.771,0.541,1.156,0.812c0.391,0.592,0.673,1.309,1.187,1.756
		c8.787,7.631,16.869,16.041,25.952,23.346c4.341,3.49,9.298,7.908,14.503,10.15c15.992,6.895,31.805,14.115,48.545,19.301
		c16.213,5.02,32.674,9.109,48.953,13.838c17.285,5.021,35.173,7.898,52.996,10.836c24.04,3.961,47.917,8.902,71.924,13.066
		c24.172,4.189,48.432,8.338,73.074,7.314c20.627-0.855,40.859,2.666,61.272,4.141c12.053,0.873,24.041,2.582,36.167,2.494
		c4.546-0.031,9.093,0.393,13.643,0.438c15.482,0.156,30.932,0.129,45.084-7.684c7.696-4.246,13.57-10.229,18.465-17.5
		c4.785-7.111,7.229-15.236,10.655-22.908c3.681-8.24,6.382-16.938,9.179-25.543c3.15-9.691,8.805-17.893,14.814-25.885
		c3.532-4.697,8.304-7.691,14.112-9.109c5.449-1.328,10.826-2.957,16.218-4.518c12.145-3.514,23.084-9.596,34.069-15.686
		c16.866-9.352,30.644-22.084,42.209-37.336c4.924-6.492,10.675-12.246,16.54-17.77c8.951-8.426,18.076-16.68,27.99-24.08
		c6.603-4.928,12.765-10.6,17.271-17.865c2.195-3.539,3.878-7.43,6.488-10.666c4.838-6.004,8.477-12.613,10.578-19.99
		c1.457-5.119,2.558-10.322,4.023-15.459c4.241-14.873,4.561-30.375,6.291-45.643c0.768-6.773-0.215-13.829,1.053-20.386
		c1.907-9.864,2.364-19.978,5.41-29.671c2.793-8.895,4.223-18.111,5.389-27.404C822.402,322.301,822.795,314.527,821.294,306.417z"
		/>
</g>
</svg>
