<?xml version="1.0" encoding="utf-8"?>
<!-- Generator: Adobe Illustrator 16.0.0, SVG Export Plug-In . SVG Version: 6.00 Build 0)  -->
<!DOCTYPE svg PUBLIC "-//W3C//DTD SVG 1.1//EN" "http://www.w3.org/Graphics/SVG/1.1/DTD/svg11.dtd">
<svg version="1.1" id="Layer_1" xmlns="http://www.w3.org/2000/svg" xmlns:xlink="http://www.w3.org/1999/xlink" x="0px" y="0px"
	 width="1703.625px" height="725.747px" viewBox="0 0 1703.625 725.747" enable-background="new 0 0 1703.625 725.747"
	 xml:space="preserve">
<path opacity="0.9" fill="#48498E" d="M1701.991,148.188c-3.367-18.007-14.4-34.684-29.977-44.312
	c-12.283-7.593-27.463-8.787-41.514-7.924c-48.746,2.994-97.012-5.694-145.683-6.912c-41.931-1.048-83.739,10.354-125.621,6.168
	c-4.638-0.792-9.208-1.843-13.688-3.254c-1.726-1.07-3.414-2.19-5.072-3.361c-19.457-16.187-34.33-36.983-56.025-50.751
	c-13.859-8.794-29.946-15.464-45.456-20.604c-13.91-4.61-28.403-7.219-42.857-9.43c-63.585-9.723-127.929-11.988-191.024,2.681
	c-17.367,4.038-34.307,9.952-51.436,14.883c-14.277,4.111-28.619,7.999-43.008,11.702c-0.959-0.09-1.927-0.142-2.906-0.14
	c-61.878,0.082-123.729,7.917-184.133,21.219c-5.213-1.43-10.531-1.664-16.241-0.094c-4.224,1.162-8.993,3.578-12.817,6.826
	c-22.778,5.524-45.565,11.734-67.474,19.677c-23.401,8.484-45.569,19.701-67.866,30.644c-25.896,2.505-51.781,5.122-77.669,7.708
	c-36.142,3.612-72.374,6.163-108.513,9.828c-75.033,7.609-149.908,18.22-223.632,34.253c-30.951,6.731-62.856,12.817-91.524,26.765
	C32.548,206.071,8.917,228.05,2.106,256.202c-7.358,30.407,5.089,62.678,29.169,81.962c20.829,16.682,44.492,28.364,68.019,40.681
	c10.113,5.294,20.207,10.704,29.711,17.046c0.678,0.452,1.752,1.23,2.73,1.949c1.078,0.939,2.136,1.903,3.191,2.871
	c5.631,5.158,11.05,10.547,16.457,15.938c21.978,21.91,44.719,45.412,73.589,58.064c11.161,4.892,21.987,8.561,34.068,10.252
	c12.632,1.769,25.124,2.738,37.874,2.875c1.07,0.011,2.141,0.004,3.211,0.009c0.471,0.2,0.939,0.413,1.404,0.638
	c5.512,2.668,11.098,5.159,16.803,7.428c5.041,2.006,10.29,3.768,14.63,7.26c-0.054,0.193-0.108,0.386-0.163,0.579
	c2.738,3.617,6.992,5.324,10.615,7.576c5.532,3.438,10.748,7.448,16.82,10.121c3.313,1.458,6.577,3.087,9.972,4.388
	c5.265,2.019,10.587,3.854,16.132,4.983c3.377,0.688,6.709,1.628,10.105,2.186c4.9,0.805,9.919,1.024,14.742,2.125
	c4.862,1.109,9.614,2.429,14.646,2.879c3.288,0.294,6.622-0.169,9.861,0.639c5.477,1.366,10.814,3.069,15.608,6.181
	c0.508,0.33,1.27,0.273,1.912,0.396c0.133-0.146,0.264-0.29,0.396-0.437v0.001c6.383,3.142,11.012,8.41,15.961,13.266
	c4.554,4.466,9.106,8.949,13.377,13.681c2.505,2.775,5.164,5.471,7.084,8.766c3.786,6.498,7.369,13.146,11.611,19.338
	c5.192,7.578,10.961,14.752,17.015,21.701c3.896,4.475,7.661,9.047,11.797,13.316c7.183,7.416,15.479,13.48,23.539,19.838
	c3.916,3.09,7.91,6.082,11.828,9.168c9.416,7.422,19.334,14.08,29.625,20.236c6.722,4.02,13.811,7.301,20.633,11.092
	c6.117,2.24,12.197,4.592,18.361,6.699c12.414,4.244,24.957,8.029,37.693,11.242c16.222,4.092,32.684,6.887,49.117,9.83
	c9.964,1.785,20.051,2.408,30.203,2.697c13.3,0.379,26.477-0.475,39.542-2.588c15.379-2.488,30.24-6.615,43.121-16.064
	c3.581-2.627,7.232-5.125,10.39-8.268c0.824-0.82,1.718-1.477,2.922-1.578c1.096-2.504,3.491-3.877,5.14-5.904
	c5.702-7.01,10.976-14.35,16.502-21.492c6.041-7.807,12.534-15.262,18.593-23.055c4.507-5.799,8.584-11.93,12.952-17.838
	c2.129-2.879,3.959-5.977,6.142-8.787c5.708-7.346,11.336-14.754,17.338-21.877c5.398-6.408,11.635-11.807,18.276-16.807
	c3.785-2.848,8.035-3.951,12.783-3.641c3.493,0.227,6.981-0.195,10.477-0.643c8.376-1.073,16.006-4.421,23.805-7.279
	c46.358,0.852,92.509-14.174,132.581-36.705c15.255-8.576,29.788-18.466,43.432-29.473c20.594-9.827,39.762-23.164,57.531-37.335
	c14.389-11.475,28.555-23.921,40.38-38.044c12.965-15.484,26.39-30.656,42.084-43.43c6.887-5.096,14.205-9.912,21.881-13.68
	c3.85-1.345,7.771-2.367,11.776-3.117c11.808-1.027,23.685-0.357,35.523-0.164c17.548,0.287,35.071-1.682,52.272-5.116
	c30.839-6.157,60.228-19.102,88.35-32.978c12.336-3.92,24.891-7.153,37.025-11.688c8.221-3.073,16.397-6.557,24.068-10.845
	c8.286-4.632,15.604-10.834,22.857-16.903c22.81-19.081,45.394-38.429,68.213-57.498c10.655-8.904,20.738-20.848,27.389-32.981
	C1703.752,183.549,1705.374,166.282,1701.991,148.188z"/>
</svg>
