<?xml version="1.0" encoding="utf-8"?>
<!-- Generator: Adobe Illustrator 16.0.0, SVG Export Plug-In . SVG Version: 6.00 Build 0)  -->
<!DOCTYPE svg PUBLIC "-//W3C//DTD SVG 1.1//EN" "http://www.w3.org/Graphics/SVG/1.1/DTD/svg11.dtd">
<svg version="1.1" id="Layer_1" xmlns="http://www.w3.org/2000/svg" xmlns:xlink="http://www.w3.org/1999/xlink" x="0px" y="0px"
	 width="509.729px" height="542.672px" viewBox="0 0 509.729 542.672" enable-background="new 0 0 509.729 542.672"
	 xml:space="preserve">
<path opacity="0.8" fill-rule="evenodd" clip-rule="evenodd" fill="#E27B5D" d="M501.383,322.534
	c-7.997-24.729-20.431-47.831-33.062-70.436c-13.02-23.301-25.055-47.036-39.197-69.708c-7.278-11.667-14.922-23.104-22.821-34.359
	c-7.107-10.127-15.428-19.348-23.101-29.058C349.81,75.043,317.199,23.916,262.792,4.849C234.593-5.034,203.283,0.927,178.2,16.06
	c-22.828,13.773-41.123,33.99-57.479,54.714c-7.368,9.334-14.364,18.872-21.382,28.459c-6.078,8.303-11.194,16.182-15.193,25.341
	c-5.636,9.32-8.123,19.763-11.746,29.855c-0.002,0.004-0.005,0.008-0.007,0.012c-0.862,0.834-1.749,1.642-2.664,2.421
	c-11.722,8.197-24.765,14.004-35.896,23.262c-6.289,5.23-11.049,11.979-14.472,19.432c-6.779,7.492-11.385,16.698-14.904,26.178
	c-6.729,18.131-3.758,38.325-4.045,57.169c-0.354,23.142-2.14,47.333,11.623,67.434c4.421,10.713,10.41,20.642,18.48,28.021
	c8.561,21.673,26.225,36.504,45.317,49.198c13.988,9.3,29.103,16.789,44.562,23.327c25.42,15.281,50.453,31.257,76.824,44.883
	c27.385,14.148,56.673,25.761,86.111,34.916c27.192,8.457,56.607,13.85,85.135,11.395c34.072-2.932,66.307-15.656,92.116-38.366
	c29.821-26.24,41.955-66.22,46.866-104.234c-0.375,2.792-0.75,5.583-1.125,8.374C512.232,379.227,510.372,350.336,501.383,322.534z"
	/>
</svg>
