<?xml version="1.0" encoding="utf-8"?>
<!-- Generator: Adobe Illustrator 16.0.0, SVG Export Plug-In . SVG Version: 6.00 Build 0)  -->
<!DOCTYPE svg PUBLIC "-//W3C//DTD SVG 1.1//EN" "http://www.w3.org/Graphics/SVG/1.1/DTD/svg11.dtd">
<svg version="1.1" id="Layer_1" xmlns="http://www.w3.org/2000/svg" xmlns:xlink="http://www.w3.org/1999/xlink" x="0px" y="0px"
	 width="443.084px" height="716.109px" viewBox="0 0 443.084 716.109" enable-background="new 0 0 443.084 716.109"
	 xml:space="preserve">
<g>
	<path fill-rule="evenodd" clip-rule="evenodd" fill="#FBFCFE" d="M416.03,220.249c0-8.638,0.006-17.276-0.016-25.914
		c-0.002-0.947,0.094-2.028-0.31-2.814c-0.864-1.683-0.813-3.434-0.672-5.152c0.319-3.862-1.388-7.503-1.096-11.347
		c0.022-0.29-0.225-0.59-0.292-0.897c-0.543-2.452-1.232-4.884-1.575-7.364c-0.714-5.162-1.77-10.283-3.298-15.216
		c-3.512-11.333-7.465-22.516-12.609-33.26c-4.599-9.606-9.76-18.866-15.728-27.675c-2.128-3.142-4.283-6.286-6.678-9.223
		c-3.904-4.789-7.576-9.785-11.936-14.187c-4.951-4.999-9.956-9.944-14.96-14.889c-2.483-2.454-5.302-4.553-7.981-6.754
		c-3.28-2.694-6.821-5.156-10.251-7.696c-6.644-4.918-13.694-9.137-20.949-12.981c-8.003-4.241-16.103-8.292-24.605-11.566
		c-7.536-2.901-15.222-5.204-22.975-7.33c-4.238-1.162-8.545-2.232-12.892-2.785c-2.974-0.378-5.842-1.639-8.926-1.205
		c-0.456,0.064-1.029,0.046-1.4-0.177c-1.923-1.158-4.032-0.757-6.086-0.857c-1.109-0.054-2.312,0.05-3.298-0.35
		c-1.406-0.571-2.802-0.564-4.231-0.567c-10.237-0.014-20.476-0.022-30.713-0.016c-0.952,0-2.017-0.139-2.837,0.224
		c-2.006,0.888-4.1,0.883-6.127,0.653c-2.197-0.25-3.957,1.149-6.045,1.123c-4.789-0.062-9.413,1.272-13.984,2.306
		c-5.496,1.243-10.963,2.844-16.422,4.314c-9.23,2.484-17.975,6.106-26.566,10.092c-6.475,3.003-12.957,6.081-18.979,9.995
		c-3.306,2.147-6.77,4.056-10.04,6.252c-3.405,2.287-6.727,4.711-9.971,7.223c-4.008,3.103-8.164,6.083-11.787,9.6
		c-8.672,8.416-17.384,16.792-24.752,26.478c-3.16,4.154-6.493,8.187-9.356,12.551c-4.861,7.411-9.57,14.922-13.527,22.874
		c-1.845,3.708-3.456,7.523-5.2,11.271c-1.807,3.881-3.371,7.844-4.809,11.85c-2.288,6.376-4.357,12.85-5.785,19.47
		c-1.195,5.538-2.877,10.961-3.422,16.676c-0.25,2.637-0.28,5.455-1.062,7.937c-0.807,2.555-0.691,5.017-0.809,7.54
		c-0.051,1.117,0.26,2.377-0.156,3.325c-1.16,2.632-0.748,5.339-0.775,8.024C0.084,205.4,0.1,210.999,0.096,216.598
		c0,1.279-0.285,2.676,0.127,3.814c1.125,3.113,0.768,6.293,0.877,9.46c0.027,0.794-0.11,1.701,0.221,2.358
		c1.561,3.1,0.096,6.709,1.748,9.764c0.16,4.762,1.648,9.287,2.554,13.911c1.76,8.996,4.898,17.599,7.979,26.205
		c2.467,6.89,5.684,13.449,9.049,19.932c2.635,5.076,5.054,10.31,8.18,15.073c3.198,4.871,6.245,9.86,9.988,14.401
		c4.02,4.878,7.281,10.384,12.065,14.633c0.949,0.843,0.681,1.658,0.265,2.542c-0.473,1.006-0.859,2.089-1.514,2.967
		c-2.846,3.817-5.545,7.759-8.961,11.12c-0.797,0.785-1.703,1.512-2.307,2.432c-3.282,5.002-7.683,9.059-12.182,12.76
		c-4.173,3.432-7.75,7.496-12.192,10.666c-3.315,2.367-6.357,5.186-9.673,7.625c-1.052,0.773-2.425,1.553-2.407,3.498
		c4.579,0,9.121,0.498,13.489-0.158c3.502-0.525,6.947-0.68,10.441-0.742c0.638-0.012,1.344,0.107,1.902-0.119
		c2.606-1.061,5.326-0.842,8.03-0.877c0.796-0.01,1.712,0.154,2.364-0.174c3.094-1.562,6.558-0.688,9.8-1.662
		c2.162-0.648,4.648-0.625,6.994-1.006c2.323-0.379,4.663-0.693,6.999-1.057c6.719-1.045,13.225-2.84,19.689-4.834
		c3.624-1.117,7.321-2,10.744-3.768c2.008-1.035,4.086-1.172,6.156,0.492c1.955,1.57,4.17,2.891,6.43,3.998
		c7.56,3.703,15.141,7.373,22.814,10.83c3.754,1.689,7.723,2.914,11.615,4.289c2.233,0.789,4.525,1.412,6.762,2.191
		c0.304,0.105,0.565,0.229,0.791,0.368c0.624,0.008,1.096,0.249,1.413,0.613c0.599,0.095,1.193,0.208,1.777,0.37
		c0.253-0.541,0.51-1.082,0.746-1.624c-0.119-0.059-0.233-0.119-0.356-0.175c2.275-7.725,6.072-14.205,9.568-20.777
		c2.748-5.168,6.17-9.994,9.486-14.838c1.325-1.936,3.025-3.615,4.449-5.521c3.049-4.08,6.482-7.854,10.199-11.359
		c1.977-1.864,3.739-3.969,5.801-5.729c3.727-3.18,7.508-6.315,11.445-9.223c4.459-3.292,9.04-6.418,13.855-9.201
		c5.507-3.182,11.165-5.988,17.031-8.467c4.383-1.852,8.813-3.476,13.322-4.975c6.307-2.098,12.834-3.187,19.249-4.769
		c3.887-0.958,7.96-0.072,11.705-1.784c0.932-0.426,2.212-0.102,3.331-0.102c6.72-0.003,13.439-0.042,20.159,0.02
		c2.684,0.025,5.316-0.065,8.024,0.835c2.316,0.771,5.062,0.052,7.459,1.155c4.058-0.273,7.802,1.303,11.587,2.275
		c8.092,2.077,15.98,4.818,23.78,7.912c6.116,2.427,11.463,6.137,17.356,8.875c0.217,0.101,0.405,0.205,0.571,0.312
		c1.285,0.387,2.56,0.805,3.84,1.206c0.16-0.549,0.536-1.02,1.125-1.235c0.15-0.407,0.334-0.812,0.581-1.164
		c4.073-5.819,8.168-11.625,11.657-17.824c2.335-4.149,4.803-8.246,6.806-12.554c2.935-6.312,5.524-12.784,8.228-19.203
		c2.023-4.804,3.708-9.736,4.951-14.794c1.502-6.111,3.142-12.184,4.336-18.383c0.562-2.92,1.043-5.907,1.459-8.817
		c0.603-4.206,1.721-8.439,1.165-12.781c-0.058-0.447,0.029-1.014,0.271-1.378C416.178,223.121,416.03,221.68,416.03,220.249z"/>
	<path fill-rule="evenodd" clip-rule="evenodd" fill="#FBFCFE" d="M149.785,406.907c2.335-7.927,6.231-14.575,9.818-21.32
		c2.821-5.304,6.331-10.255,9.735-15.226c1.36-1.986,3.104-3.711,4.566-5.666c3.126-4.187,6.65-8.06,10.465-11.656
		c2.029-1.912,3.837-4.073,5.952-5.878c3.824-3.263,7.703-6.479,11.745-9.464c4.574-3.379,9.275-6.585,14.217-9.441
		c5.65-3.264,11.456-6.145,17.476-8.688c4.497-1.901,9.045-3.567,13.671-5.105c6.471-2.152,13.169-3.27,19.752-4.893
		c3.987-0.984,8.168-0.074,12.011-1.831c0.956-0.437,2.27-0.104,3.418-0.105c6.896-0.003,13.791-0.042,20.686,0.02
		c2.754,0.026,5.456-0.066,8.234,0.858c2.377,0.79,5.194,0.053,7.654,1.185c4.163-0.28,8.005,1.337,11.889,2.334
		c8.304,2.132,16.399,4.944,24.402,8.119c6.276,2.49,11.762,6.297,17.81,9.107c1.723,0.801,1.845,1.739,0.877,3.603
		c-0.227,0.434-0.359,0.94-0.665,1.305c-2.195,2.611-4.342,5.272-6.661,7.77c-4.334,4.667-8.048,9.937-13.004,13.985
		c-4.153,3.393-7.956,7.171-12.172,10.504c-3.442,2.723-6.879,5.45-10.407,8.059c-5.764,4.261-11.676,8.276-17.922,11.829
		c-4.823,2.742-9.833,5.085-14.745,7.634c-8.846,4.593-18.173,7.931-27.541,11.217c-6.128,2.15-12.493,3.39-18.75,5.027
		c-4.204,1.102-8.513,1.997-12.915,2.091c-3.589,1.983-7.809,0.211-11.479,1.93c-0.817,0.382-1.945,0.078-2.93,0.123
		c-3.079,0.139-6.204-0.437-9.215,0.843c-0.843,0.357-1.946,0.116-2.931,0.118c-4.104,0.006-8.208,0.006-12.313-0.007
		c-1.465-0.004-2.92,0.102-4.331-0.592c-1.53-0.754-3.232-0.271-4.858-0.367c-2.75-0.165-5.581,0.507-8.222-0.857
		c-0.4-0.207-0.968-0.124-1.457-0.117c-5.565,0.084-10.882-1.557-16.31-2.398c-4.305-0.668-8.537-1.803-12.783-2.81
		C151.625,407.922,150.781,407.363,149.785,406.907z"/>
</g>
<g>
	<path fill-rule="evenodd" clip-rule="evenodd" fill="#FBFCFE" d="M278.915,608.86h-1.34c-0.234,0-0.439-0.042-0.631-0.103
		c-0.357,0.064-0.753,0.107-1.227,0.119c-0.954,0.025-1.944,0.076-2.863-0.129c-5.061-1.139-10.223-1.775-15.27-2.908
		c-4.898-1.1-9.661-2.816-14.463-4.326c-7.005-2.205-13.463-5.662-19.967-8.977c-5.513-2.811-10.921-5.844-15.898-9.549
		c-4.432-3.301-9.011-6.379-13.059-10.23c-2.747-2.615-5.855-4.877-8.475-7.674c-3.572-3.814-6.75-7.967-10.16-11.908
		c-5.551-6.416-9.761-13.701-14.231-20.812c-3.386-5.385-5.808-11.309-8.18-17.199c-2.767-6.871-4.995-13.959-6.502-21.205
		c-1.085-5.217-2.825-10.361-2.567-15.816c0.002-0.03-0.003-0.062-0.002-0.093c-0.11-0.346-0.136-0.721-0.074-1.08
		c-0.072-0.518-0.175-1.035-0.241-1.545c-0.862-0.555-1.706-1.148-2.541-1.76c-0.103,0.015-0.205,0.031-0.318,0.031
		c-0.103,0-0.194-0.017-0.289-0.028c-0.203,0.054-0.428,0.11-0.696,0.174c-3.372,0.793-6.781,1.43-10.154,2.223
		c-8.812,2.072-17.32,5.012-25.361,9.209c-3.089,1.613-6.108,3.357-9.162,5.037c-7.415,4.078-13.812,9.545-20.07,15.125
		c-5.223,4.654-9.595,10.125-13.924,15.648c-3.636,4.637-6.628,9.627-9.528,14.68c-3.396,5.916-6.28,12.135-8.328,18.648
		c-1.84,5.854-3.981,11.625-4.607,17.854c-0.251,2.494-0.284,5.166-1.024,7.494c-1.012,3.178-0.755,6.291-0.827,9.441
		c-0.085,3.678-0.083,7.359,0.01,11.037c0.075,2.992-0.536,6.062,0.936,8.938c0.264,0.516,0.133,1.264,0.095,1.896
		c-0.207,3.391,0.827,6.598,1.547,9.824c1.201,5.379,2.686,10.693,4.669,15.852c3.022,7.863,6.57,15.486,11.057,22.617
		c2.442,3.883,5.281,7.518,7.965,11.246c1.395,1.939,1.554,2.773,0.038,4.494c-2.308,2.623-4.238,5.535-6.79,7.984
		c-5.396,5.178-10.679,10.457-16.794,14.826c-0.87,0.621-2.239,1.303-1.909,2.928c0.563,0.045,1.041,0.131,1.515,0.113
		c4.9-0.197,9.88,0.729,14.674-1.012c5.25,0.051,10.349-1.191,15.52-1.756c5.705-0.625,11.087-2.338,16.562-3.76
		c1.382-0.359,2.318-0.334,3.512,0.475c3.532,2.393,6.959,4.98,10.863,6.768c4.466,2.043,8.771,4.412,13.396,6.141
		c6.969,2.604,14.033,4.752,21.354,6.166c2.673,0.516,5.483,0.346,7.965,1.189c2.221,0.756,4.333,0.846,6.541,0.857
		c5.119,0.027,10.238,0.074,15.355,0.006c3.149-0.041,6.381,0.564,9.385-1.051c0.51-0.273,1.258-0.121,1.896-0.135
		c1.43-0.031,2.816-0.33,4.217-0.545c3.771-0.576,7.443-1.531,11.076-2.576c4.855-1.395,9.787-2.77,14.353-4.875
		c5.751-2.656,11.523-5.322,16.959-8.684c2.85-1.76,5.402-3.871,8.178-5.697c3.318-2.184,6.447-4.629,9.264-7.436
		c4.621-4.602,9.472-8.965,13.42-14.234c3.797-5.068,7.509-10.191,10.591-15.711c2.703-4.842,5.071-9.854,7.173-15.023
		c3.532-8.688,5.823-17.654,7.418-26.842c0.101-0.58,0.188-0.996,0.299-1.316c0.046-0.852,0.129-1.701,0.222-2.55
		C279.276,609.194,279.101,609.02,278.915,608.86z"/>
	<path fill-rule="evenodd" clip-rule="evenodd" fill="#FBFCFE" d="M142.75,474.217c2.191-1.313,4.532-1.604,7.011-1.55
		c4.387,0.095,8.778-0.047,13.162,0.057c2.729,0.064,5.458-0.318,8.187,0.708c2.367,0.889,5.218-0.354,7.519,1.344
		c3.757,0.01,7.341,1.026,10.894,2.065c3.992,1.167,7.924,2.551,11.871,3.87c5.846,1.954,11.273,4.861,16.686,7.724
		c3.967,2.1,7.734,4.651,11.341,7.336c5.965,4.441,11.687,9.192,16.875,14.561c4.387,4.537,8.102,9.605,11.892,14.621
		c4.892,6.479,8.637,13.632,11.925,21c3.005,6.732,5.451,13.711,7.022,20.933c0.918,4.224,2.3,8.394,2.133,12.807
		c2.04,8.984,0.543,18.094,0.923,27.139c0.102,2.422-0.752,3.08-3.253,3.143c-0.971,0.024-1.978,0.077-2.912-0.132
		c-5.146-1.157-10.395-1.806-15.526-2.957c-4.981-1.118-9.824-2.864-14.706-4.399c-7.125-2.243-13.691-5.758-20.305-9.129
		c-5.605-2.856-11.104-5.942-16.166-9.71c-4.507-3.354-9.163-6.485-13.279-10.401c-2.793-2.659-5.953-4.961-8.617-7.805
		c-3.633-3.879-6.863-8.1-10.332-12.109c-5.644-6.523-9.925-13.932-14.471-21.163c-3.443-5.475-5.906-11.499-8.318-17.489
		c-2.812-6.986-5.08-14.192-6.611-21.562c-1.102-5.305-2.873-10.536-2.61-16.083C143.125,476.096,142.868,475.145,142.75,474.217z"
		/>
</g>
<g>
	<path fill-rule="evenodd" clip-rule="evenodd" fill="#FBFCFE" d="M442.921,463.427c-0.164-6.189,0.894-12.447-0.896-18.562
		c-0.13-0.443-0.097-0.967-0.023-1.434c0.579-3.711-1.004-7.162-1.363-10.77c-0.402-4.043-1.82-7.975-2.635-11.988
		c-1.648-8.113-5.086-15.602-8.127-23.211c-1.589-3.975-3.735-7.742-5.835-11.488c-2.176-3.881-4.302-7.852-7.003-11.357
		c-2.511-3.258-4.274-7.107-7.52-9.795c-1.158-2.764-3.533-4.512-5.617-6.432c-2.144-1.974-3.274-4.717-5.482-6.591
		c-0.242-0.206-0.416-0.517-0.685-0.668c-3.111-1.751-5.288-4.571-7.935-6.851c-2.265-1.952-4.822-3.562-7.11-5.488
		c-2.318-1.951-4.79-3.654-7.345-5.259c-0.023-0.015-0.039-0.031-0.062-0.046c-0.919-0.417-1.72-1.023-2.58-1.703
		c-0.612,1.205-1.479,2.212-2.601,2.933c-0.177,0.383-0.312,0.797-0.572,1.107c-2.14,2.545-4.231,5.138-6.492,7.572
		c-4.223,4.548-7.842,9.684-12.672,13.629c-4.048,3.307-7.754,6.988-11.862,10.236c-3.354,2.654-6.703,5.312-10.143,7.854
		c-5.616,4.152-11.378,8.066-17.465,11.527c-4.701,2.674-9.583,4.957-14.37,7.441c-8.62,4.475-17.71,7.729-26.839,10.93
		c-5.973,2.096-12.176,3.305-18.273,4.9c-4.097,1.072-8.296,1.945-12.586,2.037c-3.498,1.934-7.609,0.205-11.188,1.881
		c-0.796,0.371-1.896,0.076-2.854,0.119c-3.001,0.137-6.046-0.424-8.98,0.822c-0.821,0.348-1.896,0.113-2.855,0.115
		c-4,0.006-8,0.006-12-0.008c-1.428-0.004-2.846,0.1-4.221-0.576c-1.492-0.734-3.152-0.264-4.734-0.357
		c-2.682-0.162-5.439,0.494-8.014-0.836c-0.39-0.201-0.943-0.121-1.42-0.113c-5.422,0.08-10.605-1.518-15.895-2.338
		c-4.193-0.652-8.319-1.758-12.457-2.738c-0.482-0.115-0.944-0.326-1.416-0.564c-0.977-0.172-1.938-0.418-2.875-0.74
		c-0.293,0.586-0.562,1.182-0.819,1.782c-0.018,0.153-0.036,0.308-0.031,0.465c0.007,0.192-0.016,0.366-0.052,0.53
		c-0.012,0.336-0.084,0.702-0.241,1.113c-1.296,3.391-2.497,6.814-3.179,10.369c-0.801,4.176-2.346,8.152-2.686,12.488
		c-0.193,2.473-0.24,5.162-1.016,7.473c-0.855,2.553-0.773,5.008-0.805,7.527c-0.058,4.479-0.01,8.959-0.008,13.438
		c0.001,3.199,0.029,6.398-0.015,9.598c-0.009,0.627-0.032,1.037-0.125,1.342c0.038,0.353-0.008,0.709-0.132,1.036
		c0.02,0.135,0.024,0.271,0.021,0.407c0.145-0.037,0.293-0.063,0.446-0.072c1.123-0.063,2.388,0.435,3.344,0.196
		c0.293-0.072,0.562-0.079,0.812-0.042c1.355-0.353,2.761-0.449,4.216-0.418c4.313,0.094,8.632-0.047,12.944,0.055
		c2.684,0.064,5.367-0.312,8.051,0.697c2.327,0.873,5.131-0.348,7.393,1.32c3.695,0.01,7.22,1.01,10.713,2.031
		c3.927,1.148,7.793,2.51,11.675,3.807c5.749,1.922,11.086,4.781,16.408,7.596c3.901,2.064,7.606,4.574,11.153,7.215
		c5.866,4.367,11.492,9.039,16.595,14.318c4.314,4.463,7.968,9.445,11.694,14.379c4.812,6.371,8.494,13.406,11.728,20.652
		c2.955,6.621,5.36,13.482,6.905,20.584c0.903,4.154,2.263,8.254,2.098,12.594c2.007,8.836,0.535,17.795,0.907,26.689
		c0.04,0.936-0.073,1.597-0.365,2.067c0.008,1.047,0.032,2.093,0.048,3.139c0.465,0.064,0.936,0.093,1.405,0.101
		c0.294-0.097,0.679-0.144,1.231-0.172c0.418-0.021,0.837-0.018,1.256-0.015c0.084-0.005,0.166-0.006,0.249-0.003
		c0.298,0.001,0.597,0.004,0.894-0.014c8.246-0.479,16.527,0.852,24.781-0.918c2.86-0.613,5.96-0.375,8.925-1.02
		c2.615-0.57,5.369-0.555,7.943-1.24c6.687-1.781,13.448-3.35,19.927-5.822c8.317-3.174,16.445-6.73,24.016-11.52
		c2.813-1.779,5.759-3.369,8.506-5.273c3.402,0.023,6.299,1.83,9.467,2.676c0.759,0.203,1.6,0.115,2.348,0.342
		c6.368,1.928,12.818,3.393,19.492,3.723c0.616,0.029,1.295,0.168,1.815,0.473c1.034,0.609,2.13,0.584,3.246,0.609
		c4.925,0.109,9.763,1.504,14.733,0.994c0.463-0.049,0.97,0.039,1.42,0.18c4.213,1.336,8.475,0.762,13.636,0.561
		c-2.834-3.762-6.567-5.301-8.928-8.303c-4.305-2.229-7.016-6.352-10.972-9.092c-4.714-3.268-7.578-8.539-11.582-12.637
		c-0.602-2.068-2.661-3.113-3.49-5.07c-0.784-1.852-0.99-1.982,0.395-3.309c3.479-3.328,6.056-7.334,8.675-11.309
		c1.913-2.898,3.62-5.953,5.537-8.824c4.462-6.682,7.533-14.035,10.396-21.4c2.15-5.531,4.042-11.246,5.373-17.131
		c1.707-7.541,3.65-15,3.729-22.791c0.005-0.48-0.116-1.021,0.062-1.43C443.483,470.138,443.008,466.74,442.921,463.427z"/>
	<path fill-rule="evenodd" clip-rule="evenodd" fill="#FBFCFE" d="M150.013,408.478c2.33-7.912,6.222-14.55,9.801-21.282
		c2.816-5.295,6.32-10.237,9.719-15.2c1.356-1.981,3.098-3.703,4.559-5.655c3.12-4.179,6.638-8.045,10.446-11.636
		c2.024-1.908,3.83-4.065,5.941-5.868c3.817-3.257,7.689-6.468,11.725-9.447c4.566-3.374,9.259-6.574,14.191-9.425
		c5.641-3.259,11.438-6.134,17.445-8.672c4.489-1.898,9.028-3.562,13.646-5.097c6.461-2.149,13.146-3.264,19.718-4.884
		c3.98-0.982,8.153-0.074,11.989-1.828c0.955-0.436,2.267-0.104,3.412-0.105c6.884-0.003,13.767-0.042,20.649,0.02
		c2.75,0.026,5.446-0.066,8.22,0.856c2.373,0.788,5.186,0.053,7.641,1.183c4.156-0.279,7.991,1.335,11.868,2.331
		c8.289,2.128,16.369,4.936,24.358,8.104c6.266,2.486,11.742,6.287,17.779,9.091c1.72,0.799,1.84,1.736,0.875,3.596
		c-0.227,0.433-0.359,0.939-0.664,1.303c-2.192,2.607-4.334,5.263-6.649,7.756c-4.326,4.659-8.032,9.919-12.981,13.96
		c-4.146,3.388-7.941,7.158-12.149,10.485c-3.437,2.718-6.867,5.44-10.39,8.045c-5.754,4.253-11.654,8.262-17.89,11.807
		c-4.815,2.738-9.816,5.078-14.721,7.622c-8.829,4.585-18.14,7.916-27.491,11.196c-6.117,2.146-12.472,3.385-18.718,5.02
		c-4.196,1.099-8.497,1.993-12.892,2.087c-3.583,1.979-7.794,0.21-11.46,1.926c-0.814,0.381-1.942,0.078-2.924,0.122
		c-3.074,0.141-6.192-0.435-9.199,0.842c-0.841,0.357-1.942,0.116-2.925,0.118c-4.098,0.006-8.194,0.006-12.291-0.007
		c-1.464-0.004-2.916,0.102-4.325-0.591c-1.527-0.751-3.227-0.27-4.85-0.367c-2.746-0.164-5.571,0.507-8.208-0.855
		c-0.398-0.206-0.964-0.124-1.453-0.116c-5.556,0.083-10.863-1.555-16.281-2.395c-4.297-0.667-8.522-1.8-12.761-2.805
		C151.851,409.492,151.007,408.933,150.013,408.478z"/>
	<path fill-rule="evenodd" clip-rule="evenodd" fill="#FBFCFE" d="M140.813,474.836c2.196-1.317,4.545-1.608,7.031-1.555
		c4.397,0.096,8.802-0.047,13.198,0.057c2.736,0.064,5.474-0.318,8.21,0.71c2.373,0.892,5.232-0.354,7.538,1.348
		c3.769,0.01,7.362,1.029,10.925,2.071c4.004,1.172,7.946,2.558,11.905,3.882c5.862,1.96,11.304,4.874,16.731,7.745
		c3.979,2.105,7.756,4.664,11.373,7.356c5.982,4.453,11.719,9.219,16.921,14.601c4.4,4.551,8.126,9.633,11.926,14.662
		c4.907,6.497,8.661,13.671,11.959,21.06c3.013,6.751,5.466,13.75,7.041,20.991c0.922,4.235,2.308,8.416,2.14,12.842
		c2.046,9.011,0.545,18.145,0.925,27.215c0.103,2.429-0.753,3.089-3.261,3.152c-0.973,0.024-1.983,0.078-2.92-0.133
		c-5.161-1.16-10.424-1.81-15.571-2.965c-4.995-1.122-9.852-2.871-14.748-4.412c-7.143-2.249-13.728-5.774-20.36-9.154
		c-5.621-2.864-11.137-5.959-16.211-9.736c-4.52-3.364-9.189-6.504-13.316-10.432c-2.802-2.666-5.972-4.974-8.643-7.826
		c-3.643-3.89-6.883-8.123-10.36-12.144c-5.659-6.542-9.953-13.971-14.512-21.222c-3.453-5.491-5.922-11.532-8.342-17.539
		c-2.82-7.006-5.095-14.233-6.63-21.623c-1.105-5.319-2.88-10.565-2.617-16.128C141.189,476.72,140.93,475.766,140.813,474.836z"/>
</g>
</svg>
